# MagicaVoxel @ ephtracy

# material
mtllib Hatchet.mtl
usemtl palette

# normals
vn -1 0 0
vn 1 0 0
vn 0 0 1
vn 0 0 -1
vn 0 -1 0
vn 0 1 0

# texcoords
vt 0.341797 0.5
vt 0.958984 0.5
vt 0.962891 0.5
vt 0.966797 0.5
vt 0.974609 0.5
vt 0.986328 0.5

# verts and faces
v -9.5 0 -12
v -9.5 0 -13
v -9.5 1 -12
v -9.5 1 -13
f -2/6/1 -3/6/1 -4/6/1
f -1/6/1 -3/6/1 -2/6/1
v -8.5 0 -10
v -8.5 0 -12
v -8.5 0 -13
v -8.5 0 -15
v -8.5 1 -10
v -8.5 1 -12
v -8.5 1 -13
v -8.5 1 -15
f -4/6/1 -7/6/1 -8/6/1
f -3/6/1 -7/6/1 -4/6/1
f -2/6/1 -5/6/1 -6/6/1
f -1/6/1 -5/6/1 -2/6/1
v -7.5 0 -8
v -7.5 0 -10
v -7.5 0 -15
v -7.5 0 -17
v -7.5 1 -8
v -7.5 1 -10
v -7.5 1 -15
v -7.5 1 -17
f -4/6/1 -7/6/1 -8/6/1
f -3/6/1 -7/6/1 -4/6/1
f -2/6/1 -5/6/1 -6/6/1
f -1/6/1 -5/6/1 -2/6/1
v -6.5 0 -7
v -6.5 0 -8
v -6.5 0 -17
v -6.5 0 -18
v -6.5 1 -7
v -6.5 1 -8
v -6.5 1 -17
v -6.5 1 -18
f -4/6/1 -7/6/1 -8/6/1
f -3/6/1 -7/6/1 -4/6/1
f -2/6/1 -5/6/1 -6/6/1
f -1/6/1 -5/6/1 -2/6/1
v -5.5 0 -6
v -5.5 0 -7
v -5.5 0 -18
v -5.5 0 -19
v -5.5 1 -6
v -5.5 1 -7
v -5.5 1 -18
v -5.5 1 -19
f -4/6/1 -7/6/1 -8/6/1
f -3/6/1 -7/6/1 -4/6/1
f -2/6/1 -5/6/1 -6/6/1
f -1/6/1 -5/6/1 -2/6/1
v -4.5 0 -5
v -4.5 0 -6
v -4.5 0 -19
v -4.5 0 -20
v -4.5 1 -5
v -4.5 1 -6
v -4.5 1 -19
v -4.5 1 -20
f -4/6/1 -7/6/1 -8/6/1
f -3/6/1 -7/6/1 -4/6/1
f -2/6/1 -5/6/1 -6/6/1
f -1/6/1 -5/6/1 -2/6/1
v 1.5 0 19
v 1.5 0 -10
v 1.5 0 -15
v 1.5 0 -16
v 1.5 1 19
v 1.5 1 -10
v 1.5 1 -15
v 1.5 1 -16
f -4/6/1 -7/6/1 -8/6/1
f -3/6/1 -7/6/1 -4/6/1
f -2/6/1 -5/6/1 -6/6/1
f -1/6/1 -5/6/1 -2/6/1
v 2.5 0 20
v 2.5 0 19
v 2.5 0 -16
v 2.5 0 -17
v 2.5 1 20
v 2.5 1 19
v 2.5 1 -16
v 2.5 1 -17
f -4/6/1 -7/6/1 -8/6/1
f -3/6/1 -7/6/1 -4/6/1
f -2/6/1 -5/6/1 -6/6/1
f -1/6/1 -5/6/1 -2/6/1
v 5.5 0 -8
v 5.5 0 -9
v 5.5 0 -16
v 5.5 0 -17
v 5.5 1 -8
v 5.5 1 -9
v 5.5 1 -16
v 5.5 1 -17
f -4/6/1 -7/6/1 -8/6/1
f -3/6/1 -7/6/1 -4/6/1
f -2/6/1 -5/6/1 -6/6/1
f -1/6/1 -5/6/1 -2/6/1
v -3.5 0 -5
v -3.5 0 -6
v -3.5 0 -19
v -3.5 0 -20
v -3.5 1 -5
v -3.5 1 -6
v -3.5 1 -19
v -3.5 1 -20
f -8/6/2 -7/6/2 -4/6/2
f -4/6/2 -7/6/2 -3/6/2
f -6/6/2 -5/6/2 -2/6/2
f -2/6/2 -5/6/2 -1/6/2
v -2.5 0 -6
v -2.5 0 -7
v -2.5 0 -18
v -2.5 0 -19
v -2.5 1 -6
v -2.5 1 -7
v -2.5 1 -18
v -2.5 1 -19
f -8/6/2 -7/6/2 -4/6/2
f -4/6/2 -7/6/2 -3/6/2
f -6/6/2 -5/6/2 -2/6/2
f -2/6/2 -5/6/2 -1/6/2
v -1.5 0 -7
v -1.5 0 -8
v -1.5 0 -17
v -1.5 0 -18
v -1.5 1 -7
v -1.5 1 -8
v -1.5 1 -17
v -1.5 1 -18
f -8/6/2 -7/6/2 -4/6/2
f -4/6/2 -7/6/2 -3/6/2
f -6/6/2 -5/6/2 -2/6/2
f -2/6/2 -5/6/2 -1/6/2
v -0.5 0 -8
v -0.5 0 -9
v -0.5 0 -16
v -0.5 0 -17
v -0.5 1 -8
v -0.5 1 -9
v -0.5 1 -16
v -0.5 1 -17
f -8/6/2 -7/6/2 -4/6/2
f -4/6/2 -7/6/2 -3/6/2
f -6/6/2 -5/6/2 -2/6/2
f -2/6/2 -5/6/2 -1/6/2
v 0.5 0 -9
v 0.5 0 -10
v 0.5 0 -15
v 0.5 0 -16
v 0.5 1 -9
v 0.5 1 -10
v 0.5 1 -15
v 0.5 1 -16
f -8/6/2 -7/6/2 -4/6/2
f -4/6/2 -7/6/2 -3/6/2
f -6/6/2 -5/6/2 -2/6/2
f -2/6/2 -5/6/2 -1/6/2
v 3.5 0 20
v 3.5 0 19
v 3.5 0 -16
v 3.5 0 -17
v 3.5 1 20
v 3.5 1 19
v 3.5 1 -16
v 3.5 1 -17
f -8/6/2 -7/6/2 -4/6/2
f -4/6/2 -7/6/2 -3/6/2
f -6/6/2 -5/6/2 -2/6/2
f -2/6/2 -5/6/2 -1/6/2
v 4.5 0 19
v 4.5 0 -9
v 4.5 1 19
v 4.5 1 -9
f -4/6/2 -3/6/2 -2/6/2
f -2/6/2 -3/6/2 -1/6/2
v 7.5 0 -8
v 7.5 0 -9
v 7.5 0 -11
v 7.5 0 -12
v 7.5 0 -13
v 7.5 0 -14
v 7.5 0 -16
v 7.5 0 -17
v 7.5 1 -8
v 7.5 1 -9
v 7.5 1 -11
v 7.5 1 -12
v 7.5 1 -13
v 7.5 1 -14
v 7.5 1 -16
v 7.5 1 -17
f -16/6/2 -15/6/2 -8/6/2
f -8/6/2 -15/6/2 -7/6/2
f -14/6/2 -13/6/2 -6/6/2
f -6/6/2 -13/6/2 -5/6/2
f -12/6/2 -11/6/2 -4/6/2
f -4/6/2 -11/6/2 -3/6/2
f -10/6/2 -9/6/2 -2/6/2
f -2/6/2 -9/6/2 -1/6/2
v 8.5 0 -9
v 8.5 0 -11
v 8.5 0 -14
v 8.5 0 -16
v 8.5 1 -9
v 8.5 1 -11
v 8.5 1 -14
v 8.5 1 -16
f -8/6/2 -7/6/2 -4/6/2
f -4/6/2 -7/6/2 -3/6/2
f -6/6/2 -5/6/2 -2/6/2
f -2/6/2 -5/6/2 -1/6/2
v 9.5 0 -12
v 9.5 0 -13
v 9.5 1 -12
v 9.5 1 -13
f -4/6/2 -3/6/2 -2/6/2
f -2/6/2 -3/6/2 -1/6/2
v 2.5 0 20
v 2.5 1 20
v 3.5 0 20
v 3.5 1 20
f -2/6/3 -3/6/3 -4/6/3
f -1/6/3 -3/6/3 -2/6/3
v 1.5 0 19
v 1.5 1 19
v 2.5 0 19
v 2.5 1 19
v 3.5 0 19
v 3.5 1 19
v 4.5 0 19
v 4.5 1 19
f -6/6/3 -7/6/3 -8/6/3
f -5/6/3 -7/6/3 -6/6/3
f -2/6/3 -3/6/3 -4/6/3
f -1/6/3 -3/6/3 -2/6/3
v -4.5 0 -5
v -4.5 1 -5
v -3.5 0 -5
v -3.5 1 -5
f -2/6/3 -3/6/3 -4/6/3
f -1/6/3 -3/6/3 -2/6/3
v -5.5 0 -6
v -5.5 1 -6
v -4.5 0 -6
v -4.5 1 -6
v -3.5 0 -6
v -3.5 1 -6
v -2.5 0 -6
v -2.5 1 -6
f -6/6/3 -7/6/3 -8/6/3
f -5/6/3 -7/6/3 -6/6/3
f -2/6/3 -3/6/3 -4/6/3
f -1/6/3 -3/6/3 -2/6/3
v -6.5 0 -7
v -6.5 1 -7
v -5.5 0 -7
v -5.5 1 -7
v -2.5 0 -7
v -2.5 1 -7
v -1.5 0 -7
v -1.5 1 -7
f -6/6/3 -7/6/3 -8/6/3
f -5/6/3 -7/6/3 -6/6/3
f -2/6/3 -3/6/3 -4/6/3
f -1/6/3 -3/6/3 -2/6/3
v -7.5 0 -8
v -7.5 1 -8
v -6.5 0 -8
v -6.5 1 -8
v -1.5 0 -8
v -1.5 1 -8
v -0.5 0 -8
v -0.5 1 -8
v 5.5 0 -8
v 5.5 1 -8
v 7.5 0 -8
v 7.5 1 -8
f -10/6/3 -11/6/3 -12/6/3
f -9/6/3 -11/6/3 -10/6/3
f -6/6/3 -7/6/3 -8/6/3
f -5/6/3 -7/6/3 -6/6/3
f -2/6/3 -3/6/3 -4/6/3
f -1/6/3 -3/6/3 -2/6/3
v -0.5 0 -9
v -0.5 1 -9
v 0.5 0 -9
v 0.5 1 -9
v 4.5 0 -9
v 4.5 1 -9
v 5.5 0 -9
v 5.5 1 -9
v 7.5 0 -9
v 7.5 1 -9
v 8.5 0 -9
v 8.5 1 -9
f -10/6/3 -11/6/3 -12/6/3
f -9/6/3 -11/6/3 -10/6/3
f -6/6/3 -7/6/3 -8/6/3
f -5/6/3 -7/6/3 -6/6/3
f -2/6/3 -3/6/3 -4/6/3
f -1/6/3 -3/6/3 -2/6/3
v -8.5 0 -10
v -8.5 1 -10
v -7.5 0 -10
v -7.5 1 -10
v 0.5 0 -10
v 0.5 1 -10
v 1.5 0 -10
v 1.5 1 -10
f -6/6/3 -7/6/3 -8/6/3
f -5/6/3 -7/6/3 -6/6/3
f -2/6/3 -3/6/3 -4/6/3
f -1/6/3 -3/6/3 -2/6/3
v -9.5 0 -12
v -9.5 1 -12
v -8.5 0 -12
v -8.5 1 -12
v 7.5 0 -12
v 7.5 1 -12
v 8.5 0 -12
v 8.5 1 -12
v 9.5 0 -12
v 9.5 1 -12
f -8/6/3 -9/6/3 -10/6/3
f -7/6/3 -9/6/3 -8/6/3
f -4/2/3 -5/2/3 -6/2/3
f -3/2/3 -5/2/3 -4/2/3
f -2/6/3 -3/6/3 -4/6/3
f -1/6/3 -3/6/3 -2/6/3
v 7.5 0 -14
v 7.5 1 -14
v 8.5 0 -14
v 8.5 1 -14
f -2/6/3 -3/6/3 -4/6/3
f -1/6/3 -3/6/3 -2/6/3
v 7.5 0 -11
v 7.5 1 -11
v 8.5 0 -11
v 8.5 1 -11
f -4/6/4 -3/6/4 -2/6/4
f -2/6/4 -3/6/4 -1/6/4
v -9.5 0 -13
v -9.5 1 -13
v -8.5 0 -13
v -8.5 1 -13
v 7.5 0 -13
v 7.5 1 -13
v 8.5 0 -13
v 8.5 1 -13
v 9.5 0 -13
v 9.5 1 -13
f -10/6/4 -9/6/4 -8/6/4
f -8/6/4 -9/6/4 -7/6/4
f -6/2/4 -5/2/4 -4/2/4
f -4/2/4 -5/2/4 -3/2/4
f -4/6/4 -3/6/4 -2/6/4
f -2/6/4 -3/6/4 -1/6/4
v -8.5 0 -15
v -8.5 1 -15
v -7.5 0 -15
v -7.5 1 -15
v 0.5 0 -15
v 0.5 1 -15
v 1.5 0 -15
v 1.5 1 -15
f -8/6/4 -7/6/4 -6/6/4
f -6/6/4 -7/6/4 -5/6/4
f -4/6/4 -3/6/4 -2/6/4
f -2/6/4 -3/6/4 -1/6/4
v -0.5 0 -16
v -0.5 1 -16
v 0.5 0 -16
v 0.5 1 -16
v 1.5 0 -16
v 1.5 1 -16
v 2.5 0 -16
v 2.5 1 -16
v 3.5 0 -16
v 3.5 1 -16
v 5.5 0 -16
v 5.5 1 -16
v 7.5 0 -16
v 7.5 1 -16
v 8.5 0 -16
v 8.5 1 -16
f -16/6/4 -15/6/4 -14/6/4
f -14/6/4 -15/6/4 -13/6/4
f -12/6/4 -11/6/4 -10/6/4
f -10/6/4 -11/6/4 -9/6/4
f -8/6/4 -7/6/4 -6/6/4
f -6/6/4 -7/6/4 -5/6/4
f -4/6/4 -3/6/4 -2/6/4
f -2/6/4 -3/6/4 -1/6/4
v -7.5 0 -17
v -7.5 1 -17
v -6.5 0 -17
v -6.5 1 -17
v -1.5 0 -17
v -1.5 1 -17
v -0.5 0 -17
v -0.5 1 -17
v 2.5 0 -17
v 2.5 1 -17
v 3.5 0 -17
v 3.5 1 -17
v 5.5 0 -17
v 5.5 1 -17
v 7.5 0 -17
v 7.5 1 -17
f -16/6/4 -15/6/4 -14/6/4
f -14/6/4 -15/6/4 -13/6/4
f -12/6/4 -11/6/4 -10/6/4
f -10/6/4 -11/6/4 -9/6/4
f -8/6/4 -7/6/4 -6/6/4
f -6/6/4 -7/6/4 -5/6/4
f -4/6/4 -3/6/4 -2/6/4
f -2/6/4 -3/6/4 -1/6/4
v -6.5 0 -18
v -6.5 1 -18
v -5.5 0 -18
v -5.5 1 -18
v -2.5 0 -18
v -2.5 1 -18
v -1.5 0 -18
v -1.5 1 -18
f -8/6/4 -7/6/4 -6/6/4
f -6/6/4 -7/6/4 -5/6/4
f -4/6/4 -3/6/4 -2/6/4
f -2/6/4 -3/6/4 -1/6/4
v -5.5 0 -19
v -5.5 1 -19
v -4.5 0 -19
v -4.5 1 -19
v -3.5 0 -19
v -3.5 1 -19
v -2.5 0 -19
v -2.5 1 -19
f -8/6/4 -7/6/4 -6/6/4
f -6/6/4 -7/6/4 -5/6/4
f -4/6/4 -3/6/4 -2/6/4
f -2/6/4 -3/6/4 -1/6/4
v -4.5 0 -20
v -4.5 1 -20
v -3.5 0 -20
v -3.5 1 -20
f -4/6/4 -3/6/4 -2/6/4
f -2/6/4 -3/6/4 -1/6/4
v 2.5 0 20
v 3.5 0 20
v 1.5 0 19
v 2.5 0 19
v 3.5 0 19
v 4.5 0 19
v -4.5 0 -5
v -3.5 0 -5
v -5.5 0 -6
v -4.5 0 -6
v -3.5 0 -6
v -2.5 0 -6
v -6.5 0 -7
v -5.5 0 -7
v -4.5 0 -7
v -3.5 0 -7
v -2.5 0 -7
v -1.5 0 -7
v -7.5 0 -8
v -6.5 0 -8
v -5.5 0 -8
v -4.5 0 -8
v -3.5 0 -8
v -2.5 0 -8
v -1.5 0 -8
v -0.5 0 -8
v 5.5 0 -8
v 7.5 0 -8
v -2.5 0 -9
v -1.5 0 -9
v -0.5 0 -9
v 0.5 0 -9
v 4.5 0 -9
v 5.5 0 -9
v 6.5 0 -9
v 7.5 0 -9
v 8.5 0 -9
v -8.5 0 -10
v -7.5 0 -10
v -6.5 0 -10
v -5.5 0 -10
v -4.5 0 -10
v -3.5 0 -10
v -2.5 0 -10
v -1.5 0 -10
v -0.5 0 -10
v 0.5 0 -10
v 1.5 0 -10
v 2.5 0 -10
v 3.5 0 -10
v 4.5 0 -10
v 5.5 0 -10
v -4.5 0 -11
v -3.5 0 -11
v -2.5 0 -11
v 0.5 0 -11
v 4.5 0 -11
v 5.5 0 -11
v 6.5 0 -11
v 7.5 0 -11
v 8.5 0 -11
v -9.5 0 -12
v -8.5 0 -12
v -7.5 0 -12
v -4.5 0 -12
v -3.5 0 -12
v -0.5 0 -12
v 0.5 0 -12
v 1.5 0 -12
v 3.5 0 -12
v 5.5 0 -12
v 6.5 0 -12
v 7.5 0 -12
v 8.5 0 -12
v 9.5 0 -12
v -9.5 0 -13
v -8.5 0 -13
v -7.5 0 -13
v -4.5 0 -13
v -3.5 0 -13
v -0.5 0 -13
v 0.5 0 -13
v 1.5 0 -13
v 3.5 0 -13
v 5.5 0 -13
v 6.5 0 -13
v 7.5 0 -13
v 8.5 0 -13
v 9.5 0 -13
v -4.5 0 -14
v -3.5 0 -14
v -2.5 0 -14
v 0.5 0 -14
v 4.5 0 -14
v 5.5 0 -14
v 6.5 0 -14
v 7.5 0 -14
v 8.5 0 -14
v -8.5 0 -15
v -7.5 0 -15
v -6.5 0 -15
v -5.5 0 -15
v -4.5 0 -15
v -3.5 0 -15
v -2.5 0 -15
v -1.5 0 -15
v -0.5 0 -15
v 0.5 0 -15
v 1.5 0 -15
v 2.5 0 -15
v 3.5 0 -15
v 4.5 0 -15
v 5.5 0 -15
v -2.5 0 -16
v -1.5 0 -16
v -0.5 0 -16
v 0.5 0 -16
v 1.5 0 -16
v 2.5 0 -16
v 3.5 0 -16
v 5.5 0 -16
v 6.5 0 -16
v 7.5 0 -16
v 8.5 0 -16
v -7.5 0 -17
v -6.5 0 -17
v -5.5 0 -17
v -4.5 0 -17
v -3.5 0 -17
v -2.5 0 -17
v -1.5 0 -17
v -0.5 0 -17
v 2.5 0 -17
v 3.5 0 -17
v 5.5 0 -17
v 7.5 0 -17
v -6.5 0 -18
v -5.5 0 -18
v -4.5 0 -18
v -3.5 0 -18
v -2.5 0 -18
v -1.5 0 -18
v -5.5 0 -19
v -4.5 0 -19
v -3.5 0 -19
v -2.5 0 -19
v -4.5 0 -20
v -3.5 0 -20
f -145/6/5 -147/6/5 -148/6/5
f -144/6/5 -147/6/5 -145/6/5
f -139/6/5 -141/6/5 -142/6/5
f -138/6/5 -141/6/5 -139/6/5
f -135/6/5 -139/6/5 -140/6/5
f -134/2/5 -138/2/5 -139/2/5
f -134/6/5 -139/6/5 -135/6/5
f -133/6/5 -137/6/5 -138/6/5
f -133/2/5 -138/2/5 -134/2/5
f -132/6/5 -137/6/5 -133/6/5
f -129/6/5 -135/6/5 -136/6/5
f -128/2/5 -134/2/5 -135/2/5
f -128/6/5 -135/6/5 -129/6/5
f -127/5/5 -133/5/5 -134/5/5
f -127/2/5 -134/2/5 -128/2/5
f -126/3/5 -132/3/5 -133/3/5
f -126/5/5 -133/5/5 -127/5/5
f -125/6/5 -131/6/5 -132/6/5
f -125/3/5 -132/3/5 -126/3/5
f -124/6/5 -131/6/5 -125/6/5
f -120/4/5 -126/4/5 -127/4/5
f -120/4/5 -125/4/5 -126/4/5
f -120/4/5 -124/4/5 -125/4/5
f -119/6/5 -123/6/5 -124/6/5
f -119/4/5 -124/4/5 -120/4/5
f -118/6/5 -123/6/5 -119/6/5
f -116/6/5 -143/6/5 -144/6/5
f -115/6/5 -121/6/5 -122/6/5
f -114/6/5 -121/6/5 -115/6/5
f -113/6/5 -121/6/5 -114/6/5
f -110/6/5 -129/6/5 -130/6/5
f -109/2/5 -128/2/5 -129/2/5
f -109/6/5 -129/6/5 -110/6/5
f -108/5/5 -127/5/5 -128/5/5
f -108/2/5 -128/2/5 -109/2/5
f -107/4/5 -120/4/5 -127/4/5
f -107/5/5 -127/5/5 -108/5/5
f -106/4/5 -120/4/5 -107/4/5
f -105/3/5 -119/3/5 -120/3/5
f -105/4/5 -120/4/5 -106/4/5
f -104/4/5 -118/4/5 -119/4/5
f -104/3/5 -119/3/5 -105/3/5
f -103/6/5 -117/6/5 -118/6/5
f -103/4/5 -118/4/5 -104/4/5
f -102/6/5 -117/6/5 -103/6/5
f -101/6/5 -145/6/5 -146/6/5
f -100/1/5 -144/1/5 -145/1/5
f -100/6/5 -145/6/5 -101/6/5
f -99/6/5 -116/6/5 -144/6/5
f -99/1/5 -144/1/5 -100/1/5
f -99/6/5 -115/6/5 -116/6/5
f -98/6/5 -115/6/5 -99/6/5
f -97/4/5 -114/4/5 -115/4/5
f -97/6/5 -115/6/5 -98/6/5
f -96/4/5 -106/4/5 -107/4/5
f -96/4/5 -107/4/5 -108/4/5
f -95/3/5 -105/3/5 -106/3/5
f -95/4/5 -106/4/5 -96/4/5
f -94/4/5 -102/4/5 -103/4/5
f -94/3/5 -105/3/5 -95/3/5
f -94/4/5 -104/4/5 -105/4/5
f -94/4/5 -103/4/5 -104/4/5
f -93/6/5 -101/6/5 -102/6/5
f -93/4/5 -102/4/5 -94/4/5
f -93/6/5 -99/6/5 -100/6/5
f -93/6/5 -100/6/5 -101/6/5
f -93/6/5 -98/6/5 -99/6/5
f -92/4/5 -97/4/5 -98/4/5
f -92/6/5 -98/6/5 -93/6/5
f -91/4/5 -114/4/5 -97/4/5
f -91/4/5 -97/4/5 -92/4/5
f -90/2/5 -113/2/5 -114/2/5
f -90/4/5 -114/4/5 -91/4/5
f -89/6/5 -112/6/5 -113/6/5
f -89/2/5 -113/2/5 -90/2/5
f -88/6/5 -112/6/5 -89/6/5
f -86/6/5 -110/6/5 -111/6/5
f -85/2/5 -109/2/5 -110/2/5
f -85/6/5 -110/6/5 -86/6/5
f -84/3/5 -95/3/5 -96/3/5
f -84/4/5 -96/4/5 -108/4/5
f -83/4/5 -94/4/5 -95/4/5
f -83/3/5 -95/3/5 -84/3/5
f -83/4/5 -93/4/5 -94/4/5
f -83/4/5 -92/4/5 -93/4/5
f -83/4/5 -91/4/5 -92/4/5
f -82/4/5 -91/4/5 -83/4/5
f -81/4/5 -91/4/5 -82/4/5
f -80/4/5 -91/4/5 -81/4/5
f -79/4/5 -91/4/5 -80/4/5
f -78/2/5 -90/2/5 -91/2/5
f -78/4/5 -91/4/5 -79/4/5
f -77/6/5 -89/6/5 -90/6/5
f -77/2/5 -90/2/5 -78/2/5
f -76/6/5 -89/6/5 -77/6/5
f -73/6/5 -86/6/5 -87/6/5
f -72/2/5 -85/2/5 -86/2/5
f -72/6/5 -86/6/5 -73/6/5
f -71/2/5 -109/2/5 -85/2/5
f -71/2/5 -85/2/5 -72/2/5
f -70/4/5 -84/4/5 -108/4/5
f -70/4/5 -83/4/5 -84/4/5
f -69/3/5 -82/3/5 -83/3/5
f -69/4/5 -83/4/5 -70/4/5
f -68/4/5 -81/4/5 -82/4/5
f -68/3/5 -82/3/5 -69/3/5
f -67/3/5 -80/3/5 -81/3/5
f -67/4/5 -81/4/5 -68/4/5
f -66/4/5 -79/4/5 -80/4/5
f -66/3/5 -80/3/5 -67/3/5
f -65/3/5 -78/3/5 -79/3/5
f -65/4/5 -79/4/5 -66/4/5
f -64/4/5 -77/4/5 -78/4/5
f -64/3/5 -78/3/5 -65/3/5
f -64/4/5 -76/4/5 -77/4/5
f -63/4/5 -76/4/5 -64/4/5
f -62/2/5 -75/2/5 -76/2/5
f -62/4/5 -76/4/5 -63/4/5
f -61/6/5 -74/6/5 -75/6/5
f -61/2/5 -75/2/5 -62/2/5
f -60/6/5 -74/6/5 -61/6/5
f -59/4/5 -70/4/5 -108/4/5
f -59/3/5 -69/3/5 -70/3/5
f -58/4/5 -67/4/5 -68/4/5
f -58/3/5 -69/3/5 -59/3/5
f -58/4/5 -66/4/5 -67/4/5
f -58/4/5 -68/4/5 -69/4/5
f -58/4/5 -65/4/5 -66/4/5
f -58/4/5 -64/4/5 -65/4/5
f -57/4/5 -64/4/5 -58/4/5
f -56/4/5 -64/4/5 -57/4/5
f -55/4/5 -64/4/5 -56/4/5
f -54/2/5 -63/2/5 -64/2/5
f -54/4/5 -64/4/5 -55/4/5
f -53/6/5 -62/6/5 -63/6/5
f -53/2/5 -63/2/5 -54/2/5
f -52/6/5 -62/6/5 -53/6/5
f -50/6/5 -71/6/5 -72/6/5
f -49/2/5 -109/2/5 -71/2/5
f -49/6/5 -71/6/5 -50/6/5
f -48/5/5 -108/5/5 -109/5/5
f -48/2/5 -109/2/5 -49/2/5
f -47/4/5 -59/4/5 -108/4/5
f -47/5/5 -108/5/5 -48/5/5
f -47/4/5 -58/4/5 -59/4/5
f -46/4/5 -58/4/5 -47/4/5
f -45/3/5 -57/3/5 -58/3/5
f -45/4/5 -58/4/5 -46/4/5
f -44/4/5 -56/4/5 -57/4/5
f -44/3/5 -57/3/5 -45/3/5
f -43/4/5 -56/4/5 -44/4/5
f -42/4/5 -56/4/5 -43/4/5
f -41/6/5 -55/6/5 -56/6/5
f -41/4/5 -56/4/5 -42/4/5
f -40/6/5 -55/6/5 -41/6/5
f -39/6/5 -55/6/5 -40/6/5
f -38/6/5 -55/6/5 -39/6/5
f -37/4/5 -54/4/5 -55/4/5
f -37/6/5 -55/6/5 -38/6/5
f -37/4/5 -53/4/5 -54/4/5
f -36/4/5 -53/4/5 -37/4/5
f -35/4/5 -45/4/5 -46/4/5
f -35/4/5 -44/4/5 -45/4/5
f -35/3/5 -43/3/5 -44/3/5
f -34/4/5 -42/4/5 -43/4/5
f -34/3/5 -43/3/5 -35/3/5
f -33/6/5 -41/6/5 -42/6/5
f -33/4/5 -42/4/5 -34/4/5
f -32/6/5 -41/6/5 -33/6/5
f -31/6/5 -39/6/5 -40/6/5
f -30/1/5 -38/1/5 -39/1/5
f -30/6/5 -39/6/5 -31/6/5
f -29/6/5 -36/6/5 -37/6/5
f -29/1/5 -38/1/5 -30/1/5
f -29/6/5 -37/6/5 -38/6/5
f -28/4/5 -53/4/5 -36/4/5
f -28/6/5 -36/6/5 -29/6/5
f -27/2/5 -52/2/5 -53/2/5
f -27/4/5 -53/4/5 -28/4/5
f -26/6/5 -51/6/5 -52/6/5
f -26/2/5 -52/2/5 -27/2/5
f -25/6/5 -51/6/5 -26/6/5
f -24/6/5 -48/6/5 -49/6/5
f -23/2/5 -47/2/5 -48/2/5
f -23/6/5 -48/6/5 -24/6/5
f -22/5/5 -46/5/5 -47/5/5
f -22/2/5 -47/2/5 -23/2/5
f -21/4/5 -35/4/5 -46/4/5
f -21/5/5 -46/5/5 -22/5/5
f -21/4/5 -34/4/5 -35/4/5
f -20/4/5 -34/4/5 -21/4/5
f -19/4/5 -34/4/5 -20/4/5
f -18/6/5 -33/6/5 -34/6/5
f -18/4/5 -34/4/5 -19/4/5
f -17/6/5 -33/6/5 -18/6/5
f -16/6/5 -29/6/5 -30/6/5
f -15/6/5 -29/6/5 -16/6/5
f -14/6/5 -27/6/5 -28/6/5
f -14/6/5 -26/6/5 -27/6/5
f -13/6/5 -26/6/5 -14/6/5
f -12/6/5 -22/6/5 -23/6/5
f -11/2/5 -21/2/5 -22/2/5
f -11/6/5 -22/6/5 -12/6/5
f -10/5/5 -20/5/5 -21/5/5
f -10/2/5 -21/2/5 -11/2/5
f -9/3/5 -19/3/5 -20/3/5
f -9/5/5 -20/5/5 -10/5/5
f -8/6/5 -18/6/5 -19/6/5
f -8/3/5 -19/3/5 -9/3/5
f -7/6/5 -18/6/5 -8/6/5
f -6/6/5 -10/6/5 -11/6/5
f -5/2/5 -9/2/5 -10/2/5
f -5/6/5 -10/6/5 -6/6/5
f -4/6/5 -8/6/5 -9/6/5
f -4/2/5 -9/2/5 -5/2/5
f -3/6/5 -8/6/5 -4/6/5
f -2/6/5 -4/6/5 -5/6/5
f -1/6/5 -4/6/5 -2/6/5
v 2.5 1 20
v 3.5 1 20
v 1.5 1 19
v 2.5 1 19
v 3.5 1 19
v 4.5 1 19
v -4.5 1 -5
v -3.5 1 -5
v -5.5 1 -6
v -4.5 1 -6
v -3.5 1 -6
v -2.5 1 -6
v -6.5 1 -7
v -5.5 1 -7
v -4.5 1 -7
v -3.5 1 -7
v -2.5 1 -7
v -1.5 1 -7
v -7.5 1 -8
v -6.5 1 -8
v -5.5 1 -8
v -4.5 1 -8
v -3.5 1 -8
v -2.5 1 -8
v -1.5 1 -8
v -0.5 1 -8
v 5.5 1 -8
v 7.5 1 -8
v -2.5 1 -9
v -1.5 1 -9
v -0.5 1 -9
v 0.5 1 -9
v 4.5 1 -9
v 5.5 1 -9
v 6.5 1 -9
v 7.5 1 -9
v 8.5 1 -9
v -8.5 1 -10
v -7.5 1 -10
v -6.5 1 -10
v -5.5 1 -10
v -4.5 1 -10
v -3.5 1 -10
v -2.5 1 -10
v -1.5 1 -10
v -0.5 1 -10
v 0.5 1 -10
v 1.5 1 -10
v 2.5 1 -10
v 3.5 1 -10
v 4.5 1 -10
v 5.5 1 -10
v -4.5 1 -11
v -3.5 1 -11
v -2.5 1 -11
v 0.5 1 -11
v 4.5 1 -11
v 5.5 1 -11
v 6.5 1 -11
v 7.5 1 -11
v 8.5 1 -11
v -9.5 1 -12
v -8.5 1 -12
v -7.5 1 -12
v -4.5 1 -12
v -3.5 1 -12
v -0.5 1 -12
v 0.5 1 -12
v 1.5 1 -12
v 3.5 1 -12
v 5.5 1 -12
v 6.5 1 -12
v 7.5 1 -12
v 8.5 1 -12
v 9.5 1 -12
v -9.5 1 -13
v -8.5 1 -13
v -7.5 1 -13
v -4.5 1 -13
v -3.5 1 -13
v -0.5 1 -13
v 0.5 1 -13
v 1.5 1 -13
v 3.5 1 -13
v 5.5 1 -13
v 6.5 1 -13
v 7.5 1 -13
v 8.5 1 -13
v 9.5 1 -13
v -4.5 1 -14
v -3.5 1 -14
v -2.5 1 -14
v 0.5 1 -14
v 4.5 1 -14
v 5.5 1 -14
v 6.5 1 -14
v 7.5 1 -14
v 8.5 1 -14
v -8.5 1 -15
v -7.5 1 -15
v -6.5 1 -15
v -5.5 1 -15
v -4.5 1 -15
v -3.5 1 -15
v -2.5 1 -15
v -1.5 1 -15
v -0.5 1 -15
v 0.5 1 -15
v 1.5 1 -15
v 2.5 1 -15
v 3.5 1 -15
v 4.5 1 -15
v 5.5 1 -15
v -2.5 1 -16
v -1.5 1 -16
v -0.5 1 -16
v 0.5 1 -16
v 1.5 1 -16
v 2.5 1 -16
v 3.5 1 -16
v 5.5 1 -16
v 6.5 1 -16
v 7.5 1 -16
v 8.5 1 -16
v -7.5 1 -17
v -6.5 1 -17
v -5.5 1 -17
v -4.5 1 -17
v -3.5 1 -17
v -2.5 1 -17
v -1.5 1 -17
v -0.5 1 -17
v 2.5 1 -17
v 3.5 1 -17
v 5.5 1 -17
v 7.5 1 -17
v -6.5 1 -18
v -5.5 1 -18
v -4.5 1 -18
v -3.5 1 -18
v -2.5 1 -18
v -1.5 1 -18
v -5.5 1 -19
v -4.5 1 -19
v -3.5 1 -19
v -2.5 1 -19
v -4.5 1 -20
v -3.5 1 -20
f -148/6/6 -147/6/6 -145/6/6
f -145/6/6 -147/6/6 -144/6/6
f -142/6/6 -141/6/6 -139/6/6
f -139/6/6 -141/6/6 -138/6/6
f -140/6/6 -139/6/6 -135/6/6
f -139/2/6 -138/2/6 -134/2/6
f -135/6/6 -139/6/6 -134/6/6
f -138/6/6 -137/6/6 -133/6/6
f -134/2/6 -138/2/6 -133/2/6
f -133/6/6 -137/6/6 -132/6/6
f -136/6/6 -135/6/6 -129/6/6
f -135/2/6 -134/2/6 -128/2/6
f -129/6/6 -135/6/6 -128/6/6
f -134/5/6 -133/5/6 -127/5/6
f -128/2/6 -134/2/6 -127/2/6
f -133/3/6 -132/3/6 -126/3/6
f -127/5/6 -133/5/6 -126/5/6
f -132/6/6 -131/6/6 -125/6/6
f -126/3/6 -132/3/6 -125/3/6
f -125/6/6 -131/6/6 -124/6/6
f -127/4/6 -126/4/6 -120/4/6
f -126/4/6 -125/4/6 -120/4/6
f -125/4/6 -124/4/6 -120/4/6
f -124/6/6 -123/6/6 -119/6/6
f -120/4/6 -124/4/6 -119/4/6
f -119/6/6 -123/6/6 -118/6/6
f -144/6/6 -143/6/6 -116/6/6
f -122/6/6 -121/6/6 -115/6/6
f -115/6/6 -121/6/6 -114/6/6
f -114/6/6 -121/6/6 -113/6/6
f -130/6/6 -129/6/6 -110/6/6
f -129/2/6 -128/2/6 -109/2/6
f -110/6/6 -129/6/6 -109/6/6
f -128/5/6 -127/5/6 -108/5/6
f -109/2/6 -128/2/6 -108/2/6
f -127/4/6 -120/4/6 -107/4/6
f -108/5/6 -127/5/6 -107/5/6
f -107/4/6 -120/4/6 -106/4/6
f -120/3/6 -119/3/6 -105/3/6
f -106/4/6 -120/4/6 -105/4/6
f -119/4/6 -118/4/6 -104/4/6
f -105/3/6 -119/3/6 -104/3/6
f -118/6/6 -117/6/6 -103/6/6
f -104/4/6 -118/4/6 -103/4/6
f -103/6/6 -117/6/6 -102/6/6
f -146/6/6 -145/6/6 -101/6/6
f -145/1/6 -144/1/6 -100/1/6
f -101/6/6 -145/6/6 -100/6/6
f -144/6/6 -116/6/6 -99/6/6
f -100/1/6 -144/1/6 -99/1/6
f -116/6/6 -115/6/6 -99/6/6
f -99/6/6 -115/6/6 -98/6/6
f -115/4/6 -114/4/6 -97/4/6
f -98/6/6 -115/6/6 -97/6/6
f -107/4/6 -106/4/6 -96/4/6
f -108/4/6 -107/4/6 -96/4/6
f -106/3/6 -105/3/6 -95/3/6
f -96/4/6 -106/4/6 -95/4/6
f -103/4/6 -102/4/6 -94/4/6
f -95/3/6 -105/3/6 -94/3/6
f -105/4/6 -104/4/6 -94/4/6
f -104/4/6 -103/4/6 -94/4/6
f -102/6/6 -101/6/6 -93/6/6
f -94/4/6 -102/4/6 -93/4/6
f -100/6/6 -99/6/6 -93/6/6
f -101/6/6 -100/6/6 -93/6/6
f -99/6/6 -98/6/6 -93/6/6
f -98/4/6 -97/4/6 -92/4/6
f -93/6/6 -98/6/6 -92/6/6
f -97/4/6 -114/4/6 -91/4/6
f -92/4/6 -97/4/6 -91/4/6
f -114/2/6 -113/2/6 -90/2/6
f -91/4/6 -114/4/6 -90/4/6
f -113/6/6 -112/6/6 -89/6/6
f -90/2/6 -113/2/6 -89/2/6
f -89/6/6 -112/6/6 -88/6/6
f -111/6/6 -110/6/6 -86/6/6
f -110/2/6 -109/2/6 -85/2/6
f -86/6/6 -110/6/6 -85/6/6
f -96/3/6 -95/3/6 -84/3/6
f -108/4/6 -96/4/6 -84/4/6
f -95/4/6 -94/4/6 -83/4/6
f -84/3/6 -95/3/6 -83/3/6
f -94/4/6 -93/4/6 -83/4/6
f -93/4/6 -92/4/6 -83/4/6
f -92/4/6 -91/4/6 -83/4/6
f -83/4/6 -91/4/6 -82/4/6
f -82/4/6 -91/4/6 -81/4/6
f -81/4/6 -91/4/6 -80/4/6
f -80/4/6 -91/4/6 -79/4/6
f -91/2/6 -90/2/6 -78/2/6
f -79/4/6 -91/4/6 -78/4/6
f -90/6/6 -89/6/6 -77/6/6
f -78/2/6 -90/2/6 -77/2/6
f -77/6/6 -89/6/6 -76/6/6
f -87/6/6 -86/6/6 -73/6/6
f -86/2/6 -85/2/6 -72/2/6
f -73/6/6 -86/6/6 -72/6/6
f -85/2/6 -109/2/6 -71/2/6
f -72/2/6 -85/2/6 -71/2/6
f -108/4/6 -84/4/6 -70/4/6
f -84/4/6 -83/4/6 -70/4/6
f -83/3/6 -82/3/6 -69/3/6
f -70/4/6 -83/4/6 -69/4/6
f -82/4/6 -81/4/6 -68/4/6
f -69/3/6 -82/3/6 -68/3/6
f -81/3/6 -80/3/6 -67/3/6
f -68/4/6 -81/4/6 -67/4/6
f -80/4/6 -79/4/6 -66/4/6
f -67/3/6 -80/3/6 -66/3/6
f -79/3/6 -78/3/6 -65/3/6
f -66/4/6 -79/4/6 -65/4/6
f -78/4/6 -77/4/6 -64/4/6
f -65/3/6 -78/3/6 -64/3/6
f -77/4/6 -76/4/6 -64/4/6
f -64/4/6 -76/4/6 -63/4/6
f -76/2/6 -75/2/6 -62/2/6
f -63/4/6 -76/4/6 -62/4/6
f -75/6/6 -74/6/6 -61/6/6
f -62/2/6 -75/2/6 -61/2/6
f -61/6/6 -74/6/6 -60/6/6
f -108/4/6 -70/4/6 -59/4/6
f -70/3/6 -69/3/6 -59/3/6
f -68/4/6 -67/4/6 -58/4/6
f -59/3/6 -69/3/6 -58/3/6
f -67/4/6 -66/4/6 -58/4/6
f -69/4/6 -68/4/6 -58/4/6
f -66/4/6 -65/4/6 -58/4/6
f -65/4/6 -64/4/6 -58/4/6
f -58/4/6 -64/4/6 -57/4/6
f -57/4/6 -64/4/6 -56/4/6
f -56/4/6 -64/4/6 -55/4/6
f -64/2/6 -63/2/6 -54/2/6
f -55/4/6 -64/4/6 -54/4/6
f -63/6/6 -62/6/6 -53/6/6
f -54/2/6 -63/2/6 -53/2/6
f -53/6/6 -62/6/6 -52/6/6
f -72/6/6 -71/6/6 -50/6/6
f -71/2/6 -109/2/6 -49/2/6
f -50/6/6 -71/6/6 -49/6/6
f -109/5/6 -108/5/6 -48/5/6
f -49/2/6 -109/2/6 -48/2/6
f -108/4/6 -59/4/6 -47/4/6
f -48/5/6 -108/5/6 -47/5/6
f -59/4/6 -58/4/6 -47/4/6
f -47/4/6 -58/4/6 -46/4/6
f -58/3/6 -57/3/6 -45/3/6
f -46/4/6 -58/4/6 -45/4/6
f -57/4/6 -56/4/6 -44/4/6
f -45/3/6 -57/3/6 -44/3/6
f -44/4/6 -56/4/6 -43/4/6
f -43/4/6 -56/4/6 -42/4/6
f -56/6/6 -55/6/6 -41/6/6
f -42/4/6 -56/4/6 -41/4/6
f -41/6/6 -55/6/6 -40/6/6
f -40/6/6 -55/6/6 -39/6/6
f -39/6/6 -55/6/6 -38/6/6
f -55/4/6 -54/4/6 -37/4/6
f -38/6/6 -55/6/6 -37/6/6
f -54/4/6 -53/4/6 -37/4/6
f -37/4/6 -53/4/6 -36/4/6
f -46/4/6 -45/4/6 -35/4/6
f -45/4/6 -44/4/6 -35/4/6
f -44/3/6 -43/3/6 -35/3/6
f -43/4/6 -42/4/6 -34/4/6
f -35/3/6 -43/3/6 -34/3/6
f -42/6/6 -41/6/6 -33/6/6
f -34/4/6 -42/4/6 -33/4/6
f -33/6/6 -41/6/6 -32/6/6
f -40/6/6 -39/6/6 -31/6/6
f -39/1/6 -38/1/6 -30/1/6
f -31/6/6 -39/6/6 -30/6/6
f -37/6/6 -36/6/6 -29/6/6
f -30/1/6 -38/1/6 -29/1/6
f -38/6/6 -37/6/6 -29/6/6
f -36/4/6 -53/4/6 -28/4/6
f -29/6/6 -36/6/6 -28/6/6
f -53/2/6 -52/2/6 -27/2/6
f -28/4/6 -53/4/6 -27/4/6
f -52/6/6 -51/6/6 -26/6/6
f -27/2/6 -52/2/6 -26/2/6
f -26/6/6 -51/6/6 -25/6/6
f -49/6/6 -48/6/6 -24/6/6
f -48/2/6 -47/2/6 -23/2/6
f -24/6/6 -48/6/6 -23/6/6
f -47/5/6 -46/5/6 -22/5/6
f -23/2/6 -47/2/6 -22/2/6
f -46/4/6 -35/4/6 -21/4/6
f -22/5/6 -46/5/6 -21/5/6
f -35/4/6 -34/4/6 -21/4/6
f -21/4/6 -34/4/6 -20/4/6
f -20/4/6 -34/4/6 -19/4/6
f -34/6/6 -33/6/6 -18/6/6
f -19/4/6 -34/4/6 -18/4/6
f -18/6/6 -33/6/6 -17/6/6
f -30/6/6 -29/6/6 -16/6/6
f -16/6/6 -29/6/6 -15/6/6
f -28/6/6 -27/6/6 -14/6/6
f -27/6/6 -26/6/6 -14/6/6
f -14/6/6 -26/6/6 -13/6/6
f -23/6/6 -22/6/6 -12/6/6
f -22/2/6 -21/2/6 -11/2/6
f -12/6/6 -22/6/6 -11/6/6
f -21/5/6 -20/5/6 -10/5/6
f -11/2/6 -21/2/6 -10/2/6
f -20/3/6 -19/3/6 -9/3/6
f -10/5/6 -20/5/6 -9/5/6
f -19/6/6 -18/6/6 -8/6/6
f -9/3/6 -19/3/6 -8/3/6
f -8/6/6 -18/6/6 -7/6/6
f -11/6/6 -10/6/6 -6/6/6
f -10/2/6 -9/2/6 -5/2/6
f -6/6/6 -10/6/6 -5/6/6
f -9/6/6 -8/6/6 -4/6/6
f -5/2/6 -9/2/6 -4/2/6
f -4/6/6 -8/6/6 -3/6/6
f -5/6/6 -4/6/6 -2/6/6
f -2/6/6 -4/6/6 -1/6/6
